<svg aria-hidden="true" style="position: absolute; width: 0; height: 0; overflow: hidden;" version="1.1" xmlns="http://www.w3.org/2000/svg" xmlns:xlink="http://www.w3.org/1999/xlink">
<defs>
<symbol id="icon-advanced" viewBox="0 0 32 32">
<title>icon-advanced</title>
<path fill="#f9818e" style="fill: var(--color1, #f9818e)" d="M32 16c0 8.837-7.163 16-16 16s-16-7.163-16-16c0-8.837 7.163-16 16-16s16 7.163 16 16z"></path>
<path fill="#fff" style="fill: var(--color2, #fff)" d="M20.046 12h-8.090c-2.186 0-3.955 1.624-3.955 3.908 0 2.286 1.77 3.949 3.955 3.949h8.090c2.186 0 3.954-1.664 3.954-3.949s-1.768-3.908-3.954-3.908zM14 16.31c0 0.096-0.086 0.19-0.187 0.19h-1.242v1.255c0 0.101-0.11 0.174-0.207 0.174h-0.764c-0.094 0-0.17-0.069-0.17-0.162v-1.266h-1.255c-0.101 0-0.174-0.111-0.174-0.208v-0.765c0-0.094 0.069-0.17 0.162-0.17h1.267v-1.243c0-0.1 0.066-0.185 0.162-0.185h0.791c0.096 0 0.189 0.086 0.189 0.187v1.241h1.244c0.1 0 0.185 0.066 0.185 0.163v0.79zM18.278 16.625c-0.002 0-0.004 0-0.006 0-0.379 0-0.686-0.306-0.69-0.684v-0c0-0.378 0.312-0.685 0.695-0.685 0.385 0 0.696 0.307 0.696 0.685s-0.311 0.684-0.696 0.684zM19.798 18.118c-0.002 0-0.005 0-0.008 0-0.378 0-0.684-0.304-0.688-0.681v-0c0.002-0.378 0.309-0.684 0.688-0.684 0.003 0 0.006 0 0.008 0h-0c0.384 0 0.696 0.304 0.696 0.684-0.004 0.377-0.31 0.682-0.688 0.682-0.003 0-0.006-0-0.008-0h0zM19.798 15.129c-0.002 0-0.004 0-0.006 0-0.379 0-0.686-0.305-0.69-0.683v-0c0-0.378 0.312-0.685 0.696-0.685s0.696 0.307 0.696 0.685c-0.004 0.378-0.311 0.683-0.69 0.683-0.002 0-0.005 0-0.007-0h0zM21.317 16.625c-0.001 0-0.003 0-0.005 0-0.379 0-0.686-0.306-0.69-0.684v-0c0-0.378 0.311-0.685 0.694-0.685s0.694 0.307 0.694 0.685c-0.003 0.378-0.311 0.684-0.69 0.684-0.002 0-0.003 0-0.005-0h0z"></path>
</symbol>
<symbol id="icon-arcade" viewBox="0 0 32 32">
<title>icon-arcade</title>
<path fill="#ffaf7e" style="fill: var(--color3, #ffaf7e)" d="M32 16c0 8.837-7.163 16-16 16s-16-7.163-16-16c0-8.837 7.163-16 16-16s16 7.163 16 16z"></path>
<path fill="#fff" style="fill: var(--color2, #fff)" d="M19.996 14.404h-3.198v4.798h-1.6v-4.798h-3.198c-0.442 0-0.8 0.358-0.8 0.8v0 7.996c0 0.442 0.358 0.8 0.8 0.8v0h7.996c0.442 0 0.8-0.358 0.8-0.8v0-7.996c0-0.442-0.358-0.8-0.8-0.8v0zM15.198 21.601h-1.6v-1.599h1.6v1.6zM16.798 12.661c0.94-0.339 1.599-1.224 1.599-2.262 0-1.325-1.074-2.399-2.399-2.399s-2.399 1.074-2.399 2.399c0 1.038 0.66 1.922 1.582 2.257l0.017 0.005v1.744h1.6v-1.744z"></path>
</symbol>
<symbol id="icon-checkmark" viewBox="0 0 43 32">
<title>icon-checkmark</title>
<path fill="none" stroke="#fff" style="stroke: var(--color2, #fff)" stroke-linejoin="miter" stroke-linecap="butt" stroke-miterlimit="4" stroke-width="7.1111" d="M3.556 14.222l12.206 12.206 22.873-22.873"></path>
</symbol>
<symbol id="icon-pro" viewBox="0 0 32 32">
<title>icon-pro</title>
<path fill="#483eff" style="fill: var(--color4, #483eff)" d="M32 16c0 8.837-7.163 16-16 16s-16-7.163-16-16c0-8.837 7.163-16 16-16s16 7.163 16 16z"></path>
<path fill="#fff" style="fill: var(--color2, #fff)" d="M21.333 10.4h-10.666c-0 0-0.001 0-0.001 0-1.473 0-2.666 1.194-2.666 2.666v0 5.754c-0 0.012-0 0.026-0 0.040 0 1.146 0.699 2.129 1.694 2.545l0.018 0.007c0.99 0.4 2.125 0.146 2.848-0.64l2.256-2.373h2.368l2.256 2.373c0.469 0.51 1.14 0.828 1.885 0.828 0.347 0 0.678-0.069 0.98-0.194l-0.017 0.006c1.013-0.423 1.712-1.406 1.712-2.552 0-0.014-0-0.028-0-0.042l0 0.002v-5.754c0-1.473-1.194-2.666-2.666-2.666-0 0-0.001 0-0.001 0h0zM13.866 15.2h-1.066v1.066c-0.011 0.286-0.246 0.513-0.533 0.513s-0.522-0.227-0.533-0.512l-0-0.001v-1.066h-1.066c-0.295 0-0.534-0.239-0.534-0.534s0.239-0.534 0.534-0.534h1.066v-1.066c-0-0.006-0-0.013-0-0.021 0-0.295 0.239-0.534 0.534-0.534s0.534 0.239 0.534 0.534c0 0.007-0 0.014-0 0.022l0-0.001v1.066h1.066c0.295 0 0.534 0.239 0.534 0.534s-0.239 0.534-0.534 0.534v0zM19.733 16.8c-0.012 0-0.027 0-0.041 0-1.178 0-2.134-0.955-2.134-2.134s0.955-2.134 2.134-2.134c0.015 0 0.029 0 0.043 0l-0.002-0c1.16 0.023 2.092 0.969 2.092 2.133s-0.932 2.11-2.090 2.133l-0.002 0zM20.8 14.666c0 0.589-0.478 1.067-1.067 1.067s-1.067-0.478-1.067-1.067v0c0-0.589 0.478-1.067 1.067-1.067s1.067 0.478 1.067 1.067v0z"></path>
</symbol>
<symbol id="icon-thank-you" viewBox="0 0 32 32">
<title>icon-thank-you</title>
<path fill="#f9818e" style="fill: var(--color1, #f9818e)" d="M32 16c0 8.837-7.163 16-16 16s-16-7.163-16-16c0-8.837 7.163-16 16-16s16 7.163 16 16z"></path>
<path fill="#e96170" style="fill: var(--color5, #e96170)" d="M19.386 31.667c0.307-0.060 0.612-0.128 0.915-0.206 0.628-0.175 1.133-0.348 1.626-0.544l-0.108 0.038c0.602-0.233 1.084-0.452 1.552-0.694l-0.090 0.042c1.961-1.012 3.616-2.34 4.966-3.936l0.019-0.024c1.331-1.572 2.375-3.434 3.023-5.474l0.031-0.113c0.135-0.447 0.251-0.9 0.347-1.356l-9.517-9.52c-1.565-1.573-3.731-2.546-6.125-2.546-0.003 0-0.006 0-0.008 0h0c-0.002 0-0.005 0-0.008 0-2.395 0-4.563 0.973-6.129 2.546l-0 0c-3.394 3.396-3.394 8.882 0 12.278l9.506 9.51z"></path>
<path fill="#fff" style="fill: var(--color2, #fff)" d="M16.001 7.333c0.002 0 0.005 0 0.008 0 2.39 0 4.553 0.971 6.116 2.54l0 0c3.388 3.388 3.388 8.863 0 12.252s-8.862 3.388-12.251 0c-3.388-3.389-3.388-8.864 0-12.252 1.564-1.569 3.728-2.54 6.118-2.54 0.003 0 0.006 0 0.009 0h-0zM19.947 13.333c-0.126 0.011-0.249 0.060-0.349 0.138l-4.867 3.652-2.256-2.257c-0.49-0.51-1.452 0.453-0.942 0.942l2.665 2.665c0.224 0.224 0.616 0.252 0.869 0.062l5.33-3.998c0.449-0.326 0.172-1.197-0.382-1.205-0.010-0.001-0.022-0.001-0.034-0.001s-0.024 0-0.036 0.001l0.002-0z"></path>
</symbol>
</defs>
</svg>
